<svg version="1.1" preserveAspectRatio="none" xmlns="http://www.w3.org/2000/svg" width="500" height="500" viewBox="0 0 500 500"><rect width="100%" height="100%" fill="#FFFFFF" fill-opacity="1"/><svg viewBox="35.1808 112.8063 497.3387 80" width="333" height="53.5651056312328" x="83.5px" y="223.2174px" xmlns="http://www.w3.org/2000/svg" xmlns:xlink="http://www.w3.org/1999/xlink" preserveAspectRatio="none"><defs></defs><style>.companyName {fill:#182145;fill-opacity:1;}.icon1 {fill:#182145;fill-opacity:1;}.icon2 {fill:#E35B34;fill-opacity:1;}.icon3 {fill:#E3D454;fill-opacity:1;}.icon3-str {stroke:#E3D454;stroke-opacity:1;}</style><g opacity="1" transform="rotate(0 35.1808 112.8063)">
<svg width="79.9994" height="80" x="35.1808" y="112.8063" version="1.1" preserveAspectRatio="none" viewBox="12.166524887084961 10.91596794128418 78.16551208496094 78.16614532470703">
  <g transform="matrix(1 0 0 1 0 0)" class="icon1"><g><path stroke-miterlimit="10" d="M55.711,63.263l4.431,4.431c2.435,2.435,3.646,5.395,3.633,8.882   c-0.014,3.486-1.229,6.438-3.648,8.857c-2.419,2.419-5.373,3.635-8.858,3.649c-3.487,0.013-6.447-1.199-8.882-3.634   c-2.416-2.416-3.627-5.365-3.638-8.847c-0.01-3.484,1.202-6.442,3.638-8.877l4.431-4.431l-8.862-8.862l-4.431,4.431   c-2.395,2.395-5.339,3.603-8.832,3.623c-3.493,0.02-6.458-1.188-8.893-3.623c-2.396-2.396-3.606-5.336-3.633-8.822   c-0.028-3.486,1.188-6.458,3.648-8.918c2.439-2.439,5.401-3.656,8.888-3.648c3.485,0.007,6.436,1.218,8.852,3.633l4.431,4.431   l8.803-8.803l-4.431-4.431c-2.416-2.416-3.626-5.366-3.633-8.852c-0.008-3.486,1.209-6.449,3.648-8.888   c2.439-2.439,5.401-3.656,8.888-3.648c3.486,0.007,6.437,1.217,8.852,3.633c2.415,2.415,3.628,5.364,3.638,8.847   s-1.203,6.442-3.638,8.877l-4.431,4.431l8.862,8.862l4.431-4.431c2.435-2.435,5.394-3.648,8.877-3.638   c3.483,0.01,6.432,1.222,8.847,3.638c2.415,2.415,3.625,5.365,3.633,8.852c0.007,3.486-1.208,6.448-3.648,8.888   c-2.419,2.419-5.373,3.635-8.857,3.648c-3.487,0.013-6.447-1.199-8.882-3.633l-4.431-4.431L55.711,63.263z M51.25,32.275   l4.416-4.416c1.194-1.194,1.789-2.667,1.786-4.421s-0.603-3.229-1.8-4.427c-1.178-1.178-2.639-1.783-4.382-1.815   c-1.744-0.034-3.232,0.567-4.466,1.8c-1.213,1.213-1.818,2.687-1.816,4.421c0.004,1.734,0.614,3.209,1.832,4.426L51.25,32.275z    M33.526,50l-4.431-4.431c-1.217-1.217-2.698-1.822-4.441-1.816c-1.744,0.007-3.212,0.607-4.406,1.801   c-1.194,1.194-1.794,2.663-1.801,4.406c-0.007,1.744,0.599,3.224,1.816,4.441s2.698,1.824,4.441,1.816   c1.743-0.007,3.212-0.607,4.406-1.801L33.526,50z M51.28,58.832l8.803-8.803l-8.862-8.862l-8.803,8.803L51.28,58.832z M68.975,50   l4.431,4.431c1.217,1.217,2.697,1.823,4.441,1.816c1.744-0.007,3.212-0.607,4.406-1.801s1.793-2.662,1.801-4.406   c0.007-1.744-0.598-3.225-1.815-4.442c-1.218-1.218-2.694-1.828-4.427-1.831c-1.734-0.002-3.207,0.602-4.421,1.816L68.975,50z    M51.25,67.724l-4.416,4.416c-1.213,1.213-1.814,2.691-1.801,4.436c0.012,1.743,0.619,3.214,1.816,4.411   c1.198,1.197,2.667,1.803,4.411,1.816s3.223-0.587,4.436-1.801s1.818-2.687,1.815-4.42c-0.003-1.735-0.613-3.21-1.831-4.427   L51.25,67.724z"></path></g></g>
</svg>
</g><g opacity="1" transform="rotate(0 145.1802 112.8063)">
<svg width="387.3393" height="80" x="145.1802" y="112.8063" version="1.1" preserveAspectRatio="none" viewBox="3.32 -28.48 333.08 68.8">
  <g transform="matrix(1 0 0 1 0 0)" class="companyName"><path id="id-D6z1nYkh12" d="M3.32 0L3.32-28L16.04-28Q20.60-28 24.10-26.26Q27.60-24.52 29.54-21.36Q31.48-18.20 31.48-14L31.48-14Q31.48-9.80 29.54-6.64Q27.60-3.48 24.10-1.74Q20.60 0 16.04 0L16.04 0L3.32 0ZM9.80-5.32L15.72-5.32Q19.92-5.32 22.42-7.66Q24.92-10 24.92-14L24.92-14Q24.92-18 22.42-20.34Q19.92-22.68 15.72-22.68L15.72-22.68L9.80-22.68L9.80-5.32Z M61.16 0L54.20 0L48.80-7.80L48.48-7.80L42.84-7.80L42.84 0L36.36 0L36.36-28L48.48-28Q52.20-28 54.94-26.76Q57.68-25.52 59.16-23.24Q60.64-20.96 60.64-17.84L60.64-17.84Q60.64-14.72 59.14-12.46Q57.64-10.20 54.88-9L54.88-9L61.16 0ZM54.08-17.84Q54.08-20.20 52.56-21.46Q51.04-22.72 48.12-22.72L48.12-22.72L42.84-22.72L42.84-12.96L48.12-12.96Q51.04-12.96 52.56-14.24Q54.08-15.52 54.08-17.84L54.08-17.84Z M79.32 0.48Q74.96 0.48 71.46-1.40Q67.96-3.28 65.98-6.58Q64-9.88 64-14L64-14Q64-18.12 65.98-21.42Q67.96-24.72 71.46-26.60Q74.96-28.48 79.32-28.48L79.32-28.48Q83.68-28.48 87.16-26.60Q90.64-24.72 92.64-21.42Q94.64-18.12 94.64-14L94.64-14Q94.64-9.88 92.64-6.58Q90.64-3.28 87.16-1.40Q83.68 0.48 79.32 0.48L79.32 0.48ZM79.32-5.04Q81.80-5.04 83.80-6.18Q85.80-7.32 86.94-9.36Q88.08-11.40 88.08-14L88.08-14Q88.08-16.60 86.94-18.64Q85.80-20.68 83.80-21.82Q81.80-22.96 79.32-22.96L79.32-22.96Q76.84-22.96 74.84-21.82Q72.84-20.68 71.70-18.64Q70.56-16.60 70.56-14L70.56-14Q70.56-11.40 71.70-9.36Q72.84-7.32 74.84-6.18Q76.84-5.04 79.32-5.04L79.32-5.04Z M118.80-28L125.20-28L125.20 0L119.88 0L105.92-17L105.92 0L99.52 0L99.52-28L104.88-28L118.80-11L118.80-28Z M152.76 0L150.28-6L137.28-6L134.80 0L128.16 0L140.64-28L147.04-28L159.56 0L152.76 0ZM139.36-10.92L148.24-10.92L143.80-21.64L139.36-10.92Z M175.48 0.48Q171.20 0.48 167.74-1.38Q164.28-3.24 162.30-6.54Q160.32-9.84 160.32-14L160.32-14Q160.32-18.16 162.30-21.46Q164.28-24.76 167.74-26.62Q171.20-28.48 175.52-28.48L175.52-28.48Q179.16-28.48 182.10-27.20Q185.04-25.92 187.04-23.52L187.04-23.52L182.88-19.68Q180.04-22.96 175.84-22.96L175.84-22.96Q173.24-22.96 171.20-21.82Q169.16-20.68 168.02-18.64Q166.88-16.60 166.88-14L166.88-14Q166.88-11.40 168.02-9.36Q169.16-7.32 171.20-6.18Q173.24-5.04 175.84-5.04L175.84-5.04Q180.04-5.04 182.88-8.36L182.88-8.36L187.04-4.52Q185.04-2.08 182.08-0.80Q179.12 0.48 175.48 0.48L175.48 0.48Z M210.60-28L217.08-28L217.08 0L210.60 0L210.60-11.48L197.88-11.48L197.88 0L191.40 0L191.40-28L197.88-28L197.88-16.96L210.60-16.96L210.60-28Z M244.64 0L242.16-6L229.16-6L226.68 0L220.04 0L232.52-28L238.92-28L251.44 0L244.64 0ZM231.24-10.92L240.12-10.92L235.68-21.64L231.24-10.92Z M279.16 0L272.20 0L266.80-7.80L266.48-7.80L260.84-7.80L260.84 0L254.36 0L254.36-28L266.48-28Q270.20-28 272.94-26.76Q275.68-25.52 277.16-23.24Q278.64-20.96 278.64-17.84L278.64-17.84Q278.64-14.72 277.14-12.46Q275.64-10.20 272.88-9L272.88-9L279.16 0ZM272.08-17.84Q272.08-20.20 270.56-21.46Q269.04-22.72 266.12-22.72L266.12-22.72L260.84-22.72L260.84-12.96L266.12-12.96Q269.04-12.96 270.56-14.24Q272.08-15.52 272.08-17.84L272.08-17.84Z M307.68-28L296.80-9.92L296.80 0L290.32 0L290.32-10L279.48-28L286.36-28L293.84-15.56L301.32-28L307.68-28Z M329.60 0L327.12-6L314.12-6L311.64 0L305.00 0L317.48-28L323.88-28L336.40 0L329.60 0ZM316.20-10.92L325.08-10.92L320.64-21.64L316.20-10.92Z M7.20 40.32Q5.56 40.32 4.44 39.20Q3.32 38.08 3.32 36.40L3.32 36.40Q3.32 34.68 4.44 33.62Q5.56 32.56 7.20 32.56L7.20 32.56Q8.84 32.56 9.96 33.62Q11.08 34.68 11.08 36.40L11.08 36.40Q11.08 38.08 9.96 39.20Q8.84 40.32 7.20 40.32L7.20 40.32Z"/></g>
</svg>
</g></svg></svg>